<svg id="Capa_1" enable-background="new 0 0 512 512" height="512" viewBox="0 0 512 512" width="512" xmlns="http://www.w3.org/2000/svg"><g clip-rule="evenodd" fill-rule="evenodd"><path d="m20.022 283.345v159.387c0 13.667 11.184 24.851 24.851 24.851h22.836c0 24.53 19.886 44.417 44.416 44.417 24.559 0 44.445-19.887 44.445-44.417h47.686v-184.238l-99.286-32.678z" fill="#ec5469"/><path d="m204.255 99.078h-159.383c-13.666 0-24.851 11.185-24.851 24.88v159.387h47.686c0 24.53 19.886 44.417 44.416 44.417 24.559 0 44.445-19.887 44.445-44.417h47.686v-47.717c-24.529 0-44.416-19.887-44.416-44.417s19.886-44.446 44.416-44.446v-47.687z" fill="#60b6ff"/><path d="m204.255 283.345-35.684 90.673 35.684 93.565h159.382c13.666 0 24.851-11.185 24.851-24.851v-35.277c24.559 0 44.445-19.887 44.445-44.417 0-24.559-19.886-44.446-44.445-44.446v-35.247h-47.686c0 24.53-19.886 44.417-44.416 44.417-24.529 0-44.445-19.887-44.445-44.417z" fill="#ffc243"/><path d="m301.701 175.647 12.966 45.906 45.905-12.966c6.658 23.625 31.187 37.379 54.811 30.692 23.624-6.658 37.349-31.188 30.691-54.813l45.905-12.937-43.277-153.4c-3.709-13.17-17.521-20.909-30.662-17.2l-153.396 43.278 12.936 45.906c-23.624 6.658-37.349 31.217-30.691 54.842 6.658 23.595 31.217 37.35 54.812 30.692z" fill="#6fd7a3"/><path d="m362.936 16.464c20.412 39.219 33.436 98.733 33.436 165.373 0 20.062-1.168 39.482-3.387 57.908 7.154 1.723 14.834 1.694 22.398-.467 23.624-6.658 37.349-31.188 30.691-54.813l45.905-12.937-43.277-153.4c-3.709-13.17-17.521-20.909-30.662-17.2z" fill="#3ec3a4"/><path d="m388.488 283.345h-47.686c0 16.558-9.082 31.013-22.514 38.664 15.126 52.009 2.307 131.382-8.176 145.574h53.527c13.666 0 24.851-11.185 24.851-24.851v-35.277c24.559 0 44.445-19.887 44.445-44.417 0-24.559-19.886-44.446-44.445-44.446v-35.247z" fill="#fea610"/><path d="m204.255 283.345v-47.717c-24.529 0-44.416-19.887-44.416-44.417s19.886-44.446 44.416-44.446v-47.687h-130.736c19.594 53.148 33.319 134.769 36.911 228.655.555.029 1.139.029 1.694.029 24.559 0 44.445-19.887 44.445-44.417z" fill="#23a6fe"/><path d="m204.255 283.345h-47.686c0 24.53-19.886 44.417-44.445 44.417-.555 0-1.139 0-1.694-.029.613 15.945.905 32.21.905 48.768 0 47.863-2.599 93.419-7.33 134.769 2.628.496 5.344.73 8.118.73 24.559 0 44.445-19.887 44.445-44.417h47.686v-184.238z" fill="#e5374e"/></g></svg>